Normalized EMG Linear Envelopes
nRows=258
nColumns=4

endheader
time	 med_gas_r	  soleus_r	 tib_ant_r	
2.49496	  0.078519	  0.047034	  0.015652	
2.52823	  0.081429	  0.046595	  0.015983	
2.56149	  0.084435	  0.046219	  0.016544	
2.59476	  0.087151	  0.045852	  0.017361	
2.62802	  0.089043	  0.045462	  0.018371	
2.66129	  0.089553	  0.045120	  0.019485	
2.69456	  0.088638	  0.045011	  0.020588	
2.72782	  0.086912	  0.045190	  0.021485	
2.76109	  0.085157	  0.045602	  0.022063	
2.79435	  0.083653	  0.046113	  0.022244	
2.82762	  0.082303	  0.046582	  0.022041	
2.86089	  0.080843	  0.046875	  0.021471	
2.89415	  0.079141	  0.046787	  0.020561	
2.92742	  0.077160	  0.046138	  0.019478	
2.96069	  0.074968	  0.045232	  0.018451	
2.99395	  0.072683	  0.044494	  0.017657	
3.02722	  0.070533	  0.044178	  0.017164	
3.06048	  0.068886	  0.044318	  0.016970	
3.09375	  0.068062	  0.044741	  0.017033	
3.12702	  0.068247	  0.045213	  0.017211	
3.16028	  0.069473	  0.045714	  0.017407	
3.19355	  0.071560	  0.046249	  0.017656	
3.22681	  0.074136	  0.046743	  0.017978	
3.26008	  0.076606	  0.047071	  0.018324	
3.29335	  0.078393	  0.047075	  0.018612	
3.32661	  0.079081	  0.046640	  0.018825	
3.35988	  0.078382	  0.045873	  0.018947	
3.39315	  0.076717	  0.045084	  0.018987	
3.42641	  0.074768	  0.044504	  0.018960	
3.45968	  0.073284	  0.044260	  0.018856	
3.49294	  0.072906	  0.044527	  0.018702	
3.52621	  0.073725	  0.045241	  0.018499	
3.55948	  0.075527	  0.046081	  0.018243	
3.59274	  0.077857	  0.046735	  0.017986	
3.62601	  0.079961	  0.047214	  0.017735	
3.65927	  0.081017	  0.047626	  0.017418	
3.69254	  0.080613	  0.047989	  0.016942	
3.72581	  0.078967	  0.048204	  0.016330	
3.75907	  0.076453	  0.048275	  0.015767	
3.79234	  0.073668	  0.048313	  0.015412	
3.8256	  0.071239	  0.048428	  0.015327	
3.85887	  0.069426	  0.048533	  0.015485	
3.89214	  0.068309	  0.048709	  0.015800	
3.9254	  0.067797	  0.049165	  0.016220	
3.95867	  0.067571	  0.049976	  0.016710	
3.99194	  0.067600	  0.051119	  0.017224	
4.0252	  0.067875	  0.052428	  0.017698	
4.05847	  0.068364	  0.053719	  0.018118	
4.09173	  0.069190	  0.054925	  0.018536	
4.125	  0.070520	  0.056004	  0.018945	
4.15827	  0.072324	  0.057050	  0.019226	
4.19153	  0.074502	  0.058277	  0.019245	
4.2248	  0.076867	  0.059682	  0.019029	
4.25806	  0.079018	  0.060967	  0.018640	
4.29133	  0.080465	  0.061740	  0.018109	
4.3246	  0.080694	  0.061789	  0.017374	
4.35786	  0.079602	  0.061120	  0.016300	
4.39113	  0.077528	  0.059770	  0.014814	
4.4244	  0.074975	  0.057829	  0.012948	
4.45766	  0.072319	  0.055424	  0.010714	
4.49093	  0.069717	  0.052704	  0.008222	
4.52419	  0.067380	  0.049812	  0.005736	
4.55746	  0.065579	  0.047119	  0.003757	
4.59073	  0.064707	  0.045219	  0.003173	
4.62399	  0.065157	  0.044794	  0.005254	
4.65726	  0.067639	  0.046547	  0.011633	
4.69052	  0.073699	  0.051606	  0.024345	
4.72379	  0.085020	  0.061470	  0.045687	
4.75706	  0.102954	  0.077608	  0.077625	
4.79032	  0.128415	  0.100825	  0.121126	
4.82359	  0.161215	  0.130892	  0.175317	
4.85685	  0.199280	  0.166171	  0.236296	
4.89012	  0.238113	  0.203287	  0.296328	
4.92339	  0.272856	  0.237888	  0.346980	
4.95665	  0.300617	  0.266968	  0.383854	
4.98992	  0.319703	  0.289773	  0.407118	
5.02319	  0.331788	  0.306845	  0.419688	
5.05645	  0.339806	  0.319308	  0.426323	
5.08972	  0.347210	  0.329341	  0.431272	
5.12298	  0.355654	  0.338556	  0.436133	
5.15625	  0.365941	  0.348597	  0.442972	
5.18952	  0.377056	  0.360569	  0.452192	
5.22278	  0.388594	  0.374744	  0.463969	
5.25605	  0.399909	  0.389066	  0.477324	
5.28931	  0.411060	  0.402496	  0.491255	
5.32258	  0.422967	  0.415193	  0.504788	
5.35585	  0.437242	  0.428574	  0.517293	
5.38911	  0.454315	  0.443184	  0.528625	
5.42238	  0.471698	  0.457230	  0.538004	
5.45565	  0.484913	  0.468152	  0.544379	
5.48891	  0.491098	  0.474103	  0.548287	
5.52218	  0.491261	  0.475200	  0.551005	
5.55544	  0.486051	  0.471565	  0.553905	
5.58871	  0.478104	  0.464230	  0.557342	
5.62198	  0.469525	  0.455701	  0.560006	
5.65524	  0.460226	  0.447258	  0.561856	
5.68851	  0.450648	  0.440189	  0.564301	
5.72177	  0.443041	  0.437401	  0.570244	
5.75504	  0.440144	  0.440726	  0.581053	
5.78831	  0.442566	  0.448747	  0.595549	
5.82157	  0.449742	  0.459232	  0.611026	
5.85484	  0.459897	  0.468360	  0.625501	
5.8881	  0.471889	  0.475923	  0.639203	
5.92137	  0.486364	  0.485502	  0.654370	
5.95464	  0.503145	  0.499271	  0.672202	
5.9879	  0.521022	  0.517284	  0.692147	
6.02117	  0.537824	  0.537727	  0.713533	
6.05444	  0.552650	  0.558325	  0.734850	
6.0877	  0.565650	  0.576141	  0.754529	
6.12097	  0.576571	  0.589087	  0.768252	
6.15423	  0.585697	  0.598885	  0.773392	
6.1875	  0.590425	  0.604907	  0.772002	
6.22077	  0.587714	  0.602904	  0.766298	
6.25403	  0.578787	  0.591465	  0.757345	
6.2873	  0.569194	  0.576281	  0.745088	
6.32056	  0.566298	  0.565624	  0.731505	
6.35383	  0.574119	  0.565676	  0.718936	
6.3871	  0.592246	  0.579900	  0.708753	
6.42036	  0.619637	  0.609880	  0.702323	
6.45363	  0.655462	  0.655620	  0.699799	
6.4869	  0.695743	  0.711039	  0.702093	
6.52016	  0.733654	  0.765212	  0.710788	
6.55343	  0.764297	  0.809067	  0.727178	
6.58669	  0.786670	  0.838719	  0.751465	
6.61996	  0.802269	  0.856295	  0.780666	
6.65323	  0.813637	  0.865556	  0.810382	
6.68649	  0.821593	  0.868568	  0.836103	
6.71976	  0.825620	  0.867466	  0.854568	
6.75302	  0.825636	  0.863569	  0.865754	
6.78629	  0.822080	  0.856670	  0.872141	
6.81956	  0.817724	  0.849157	  0.876567	
6.85282	  0.815535	  0.845215	  0.879787	
6.88609	  0.816462	  0.845979	  0.881537	
6.91935	  0.821885	  0.852137	  0.880698	
6.95262	  0.827539	  0.859331	  0.876504	
6.98589	  0.828890	  0.862909	  0.868185	
7.01915	  0.823645	  0.859484	  0.857290	
7.05242	  0.812221	  0.848312	  0.847029	
7.08569	  0.797391	  0.832850	  0.839858	
7.11895	  0.780915	  0.815666	  0.836280	
7.15222	  0.766837	  0.801319	  0.833114	
7.18548	  0.757223	  0.790052	  0.827084	
7.21875	  0.753053	  0.781593	  0.818196	
7.25202	  0.755439	  0.778926	  0.808779	
7.28528	  0.763870	  0.783102	  0.802667	
7.31855	  0.774768	  0.790571	  0.801827	
7.35181	  0.782158	  0.796182	  0.807365	
7.38508	  0.781949	  0.798580	  0.820139	
7.41835	  0.772298	  0.796867	  0.840538	
7.45161	  0.757635	  0.794394	  0.869075	
7.48488	  0.741113	  0.791213	  0.902943	
7.51815	  0.725772	  0.786204	  0.936160	
7.55141	  0.714248	  0.780100	  0.962022	
7.58468	  0.707700	  0.774833	  0.974964	
7.61794	  0.704307	  0.769231	  0.972006	
7.65121	  0.702536	  0.762129	  0.955693	
7.68448	  0.703053	  0.753469	  0.932052	
7.71774	  0.707256	  0.745656	  0.906547	
7.75101	  0.717390	  0.743600	  0.884177	
7.78427	  0.733943	  0.749823	  0.866108	
7.81754	  0.756664	  0.763162	  0.851970	
7.85081	  0.783717	  0.780436	  0.838631	
7.88407	  0.810561	  0.799532	  0.822383	
7.91734	  0.829346	  0.816205	  0.801552	
7.9506	  0.837672	  0.828342	  0.778544	
7.98387	  0.837316	  0.835581	  0.757620	
8.01714	  0.828557	  0.833886	  0.738919	
8.0504	  0.812787	  0.820007	  0.722912	
8.08367	  0.791479	  0.793394	  0.714128	
8.11694	  0.765737	  0.757338	  0.715038	
8.1502	  0.737381	  0.719454	  0.726995	
8.18347	  0.707548	  0.684660	  0.748336	
8.21673	  0.678473	  0.655777	  0.773463	
8.25	  0.654657	  0.635954	  0.797281	
8.28327	  0.638622	  0.625609	  0.814530	
8.31653	  0.632533	  0.626124	  0.824877	
8.3498	  0.636863	  0.638150	  0.830380	
8.38306	  0.649724	  0.659069	  0.834602	
8.41633	  0.669313	  0.684847	  0.840399	
8.4496	  0.691028	  0.707902	  0.848977	
8.48286	  0.709077	  0.720736	  0.859805	
8.51613	  0.722075	  0.722698	  0.871089	
8.5494	  0.730658	  0.717513	  0.880505	
8.58266	  0.736057	  0.710665	  0.884703	
8.61593	  0.741113	  0.709296	  0.882264	
8.64919	  0.748850	  0.719188	  0.873607	
8.68246	  0.762389	  0.742872	  0.862485	
8.71573	  0.782873	  0.780606	  0.851625	
8.74899	  0.807503	  0.827608	  0.842468	
8.78226	  0.831266	  0.876269	  0.836983	
8.81552	  0.849266	  0.918450	  0.837562	
8.84879	  0.861890	  0.954589	  0.843727	
8.88206	  0.871225	  0.984992	  0.850307	
8.91532	  0.872564	  0.999751	  0.850632	
8.94859	  0.862232	  0.991345	  0.845339	
8.98185	  0.837661	  0.957868	  0.838276	
9.01512	  0.800222	  0.901171	  0.833514	
9.04839	  0.757303	  0.830799	  0.834545	
9.08165	  0.713086	  0.758318	  0.840835	
9.11492	  0.672338	  0.693995	  0.848391	
9.14819	  0.639340	  0.643713	  0.854054	
9.18145	  0.615642	  0.609786	  0.856817	
9.21472	  0.600719	  0.592239	  0.856568	
9.24798	  0.595237	  0.589749	  0.852278	
9.28125	  0.598698	  0.601521	  0.844551	
9.31452	  0.607872	  0.623657	  0.833999	
9.34778	  0.620092	  0.651399	  0.821510	
9.38105	  0.630974	  0.678493	  0.808327	
9.41431	  0.635184	  0.697683	  0.797758	
9.44758	  0.634623	  0.710459	  0.795439	
9.48085	  0.637113	  0.724175	  0.804577	
9.51411	  0.647226	  0.741690	  0.824553	
9.54738	  0.662963	  0.760968	  0.850495	
9.58065	  0.679255	  0.778153	  0.872081	
9.61391	  0.689397	  0.786464	  0.879754	
9.64718	  0.692863	  0.784590	  0.867519	
9.68044	  0.692421	  0.776093	  0.837140	
9.71371	  0.688689	  0.761166	  0.796301	
9.74698	  0.682752	  0.740972	  0.753563	
9.78024	  0.678088	  0.720241	  0.717427	
9.81351	  0.671814	  0.696852	  0.691417	
9.84677	  0.658248	  0.666724	  0.673074	
9.88004	  0.635436	  0.631369	  0.655476	
9.91331	  0.601710	  0.591033	  0.632521	
9.94657	  0.555328	  0.543280	  0.600191	
9.97984	  0.497710	  0.486148	  0.552523	
10.0131	  0.432598	  0.421779	  0.487234	
10.0464	  0.364287	  0.353599	  0.410045	
10.0796	  0.300467	  0.288492	  0.332688	
10.1129	  0.248394	  0.233496	  0.265403	
10.1462	  0.209688	  0.191056	  0.212464	
10.1794	  0.181124	  0.158686	  0.172441	
10.2127	  0.159785	  0.133086	  0.143195	
10.246	  0.145048	  0.113651	  0.124118	
10.2792	  0.135798	  0.099912	  0.112950	
10.3125	  0.130653	  0.090489	  0.106211	
10.3458	  0.128230	  0.084335	  0.101619	
10.379	  0.127427	  0.080944	  0.099105	
10.4123	  0.126996	  0.079514	  0.098081	
10.4456	  0.125851	  0.078596	  0.097207	
10.4788	  0.123236	  0.077013	  0.095882	
10.5121	  0.119604	  0.075161	  0.093704	
10.5454	  0.115958	  0.073511	  0.089532	
10.5786	  0.112387	  0.071913	  0.082482	
10.6119	  0.108435	  0.069710	  0.073234	
10.6452	  0.104040	  0.066661	  0.063225	
10.6784	  0.099454	  0.063389	  0.054122	
10.7117	  0.095009	  0.060494	  0.047067	
10.745	  0.090910	  0.058204	  0.042442	
10.7782	  0.087450	  0.056280	  0.040019	
10.8115	  0.084844	  0.054339	  0.039217	
10.8448	  0.083156	  0.052380	  0.039369	
10.878	  0.082194	  0.050546	  0.039677	
10.9113	  0.081693	  0.049108	  0.039337	
10.9446	  0.081354	  0.048216	  0.037945	
10.9778	  0.080695	  0.047797	  0.035661	
11.0111	  0.079449	  0.047589	  0.032926	
11.0444	  0.077837	  0.047437	  0.029875	
